<?xml version="1.0" encoding="UTF-8"?>
<svg version="1.1" xmlns="http://www.w3.org/2000/svg" width="1000" height="556">
<path d="M0 0 C128.9226361 0 128.9226361 0 146 8 C146.92941406 8.41894531 147.85882813 8.83789062 148.81640625 9.26953125 C162.78091771 16.16239821 174.05200691 28.17745914 179.27563477 42.89160156 C184.71093464 59.17945703 185.05368056 76.34607615 177.8125 92.125 C169.3019001 107.86205604 156.45612712 116.26733276 140 122 C141.02738281 122.29132813 142.05476562 122.58265625 143.11328125 122.8828125 C160.19754461 127.86891091 174.23552863 135.38085259 183.5703125 151.28125 C191.75611851 166.84770077 193.30985192 184.0070467 188.63378906 201.0234375 C183.15611877 218.10634147 171.49140473 231.53552162 155.54296875 239.7890625 C141.74640942 245.96481011 128.6056442 248.16014126 113.63891602 248.11352539 C112.38913688 248.11364593 111.13935774 248.11376646 109.8517065 248.11389065 C106.48738374 248.11326955 103.12312346 248.10834201 99.75881195 248.10128021 C96.59567873 248.0955627 93.43254695 248.09531586 90.26940918 248.09460449 C81.03376807 248.08936831 71.79813357 248.07540707 62.5625 248.0625 C41.916875 248.041875 21.27125 248.02125 0 248 C0 166.16 0 84.32 0 0 Z M35 27 C35 54.39 35 81.78 35 110 C52.0775 110.0928125 52.0775 110.0928125 69.5 110.1875 C73.06103516 110.21481201 76.62207031 110.24212402 80.29101562 110.27026367 C83.55462217 110.28031256 83.55462217 110.28031256 86.8182373 110.28633118 C88.24339633 110.29086161 89.66854576 110.30124833 91.09362793 110.31672668 C108.82626282 110.49926851 125.56296418 108.80214139 139.02734375 96.09765625 C147.45067894 87.14056516 149.63577286 76.82027824 149.34375 64.75 C148.35685932 53.98391984 144.09556 45.46035134 136.05078125 38.25390625 C125.13927804 29.65761394 113.21488603 26.86229774 99.48242188 26.88647461 C98.4104594 26.88629381 98.4104594 26.88629381 97.31684113 26.88610935 C95.03411092 26.88684779 92.75146534 26.89442655 90.46875 26.90234375 C89.04720092 26.90381649 87.6256513 26.90483515 86.20410156 26.90539551 C80.9693927 26.91060992 75.73469549 26.92457115 70.5 26.9375 C52.9275 26.9684375 52.9275 26.9684375 35 27 Z M35 136 C35 164.05 35 192.1 35 221 C54.18125 221.061875 54.18125 221.061875 73.75 221.125 C77.76510742 221.14320801 81.78021484 221.16141602 85.91699219 221.18017578 C89.56387159 221.18687087 89.56387159 221.18687087 93.21075439 221.19088745 C94.81607171 221.19392822 96.42138491 221.20089805 98.02667236 221.21115112 C116.13831893 221.32089593 132.3415743 220.28033779 146 207 C154.76926815 196.72527809 157.1907024 185.12983084 156.22753906 171.97265625 C155.12113107 162.38062129 149.78293732 153.25339851 142.75 146.75 C129.01992511 135.9514008 112.79595962 135.54845973 96.1328125 135.70703125 C94.55851563 135.711456 92.9842143 135.71450795 91.40991211 135.71618652 C85.64820633 135.73175415 79.88659575 135.77363691 74.125 135.8125 C61.21375 135.874375 48.3025 135.93625 35 136 Z " fill="#000000" transform="translate(15,292)"/>
<path d="M0 0 C18.62792638 17.30665487 29.35809364 41.06438456 30.56762695 66.53710938 C31.73191635 110.27003667 17.86581485 151.41340433 -12.30615234 183.75195312 C-39.57301421 212.39845026 -77.11024532 234.29540093 -117.50317383 236.00341797 C-147.37080417 236.71629151 -178.16892121 233.53242842 -201.55859375 212.87890625 C-202.36554687 212.21375 -203.1725 211.54859375 -204.00390625 210.86328125 C-224.84414953 193.14588788 -233.05796618 168.37839926 -235.55859375 141.87890625 C-238.5088909 100.13358018 -221.38357744 59.65507637 -194.5871582 28.42431641 C-186.402677 19.0578723 -177.53670091 11.24840966 -167.55859375 3.87890625 C-166.97867676 3.44932617 -166.39875977 3.01974609 -165.80126953 2.57714844 C-144.93963159 -12.64288396 -120.95674124 -21.27114832 -95.55859375 -25.12109375 C-94.7078125 -25.25257813 -93.85703125 -25.3840625 -92.98046875 -25.51953125 C-60.28728622 -29.63397939 -24.9383658 -22.24596464 0 0 Z M-109.55859375 9.87890625 C-110.23390137 10.08789551 -110.90920898 10.29688477 -111.60498047 10.51220703 C-144.74477927 21.08368407 -171.27384635 46.05032106 -187.1262207 76.61108398 C-199.49569304 101.51782672 -205.12142163 131.79871294 -196.37109375 158.75390625 C-189.75740366 176.82104215 -178.45387738 189.72046267 -161.18359375 198.12890625 C-137.7098035 208.49718816 -111.65868181 206.28028744 -88.01953125 197.67578125 C-71.83548904 191.38947638 -58.11652328 181.77793207 -45.55859375 169.87890625 C-44.66140625 169.04617188 -43.76421875 168.2134375 -42.83984375 167.35546875 C-19.98285312 145.46155357 -6.08096305 114.74997495 -4.35546875 83.16015625 C-4.08359704 61.22917172 -9.59558235 40.71297065 -25.24609375 24.62890625 C-40.68457832 9.48652859 -59.99966938 5.58706202 -80.9152832 5.56201172 C-90.94547651 5.66997075 -100.00644578 6.86426221 -109.55859375 9.87890625 Z " fill="#000000" transform="translate(731.55859375,311.12109375)"/>
<path d="M0 0 C12.4683763 11.59032163 21.2663392 27.4747202 25.9375 43.8125 C26.23527344 44.84890625 26.53304688 45.8853125 26.83984375 46.953125 C31.37713143 66.27318867 30.83010113 89.58936907 25.9375 108.8125 C25.63948486 109.99513428 25.63948486 109.99513428 25.33544922 111.20166016 C14.16552518 154.1326566 -13.28900869 190.47231844 -51.21484375 213.359375 C-85.11374218 233.2194594 -125.66899622 240.93657757 -164.13671875 231.29248047 C-178.61512931 227.49291635 -191.27999304 221.11855229 -203.0625 211.8125 C-203.67222656 211.36777344 -204.28195313 210.92304687 -204.91015625 210.46484375 C-222.59184538 196.79602024 -232.27322451 173.62325961 -235.66113281 152.18383789 C-236.4159628 145.84354146 -236.50203184 139.50127889 -236.5 133.125 C-236.5010675 132.40828125 -236.50213501 131.6915625 -236.50323486 130.953125 C-236.4609368 111.12467163 -232.73542441 92.126051 -225.0625 73.8125 C-224.78067871 73.12816895 -224.49885742 72.44383789 -224.20849609 71.73876953 C-214.44421492 48.44144268 -197.92956362 25.58259142 -178.0625 9.8125 C-177.53092285 9.38501465 -176.9993457 8.9575293 -176.45166016 8.51708984 C-126.90227346 -31.04476849 -51.21158301 -43.60434939 0 0 Z M-107.0625 7.8125 C-108.23941406 8.12960937 -109.41632813 8.44671875 -110.62890625 8.7734375 C-143.052127 18.46945898 -169.99665786 42.39260337 -186.26171875 71.69921875 C-199.1879032 95.94641479 -206.10115897 125.67142489 -199.03515625 152.78515625 C-192.97662856 171.64201954 -182.32988032 186.94670734 -164.5390625 196.16015625 C-141.45625031 207.13097598 -115.6040886 205.58053834 -91.89453125 197.48876953 C-77.56936338 192.25385493 -64.62437215 184.72483803 -53.0625 174.8125 C-52.55138672 174.37824707 -52.04027344 173.94399414 -51.51367188 173.49658203 C-29.24836542 154.42895256 -14.67073898 129.2455967 -8.0625 100.8125 C-7.81628906 99.81347656 -7.57007813 98.81445312 -7.31640625 97.78515625 C-3.18673011 77.93423023 -5.29945104 54.72468111 -15.66015625 37.09375 C-17.36631462 34.57532034 -19.16640006 32.19059173 -21.0625 29.8125 C-21.63484375 29.05324219 -22.2071875 28.29398437 -22.796875 27.51171875 C-33.27169003 14.55249247 -49.81298952 7.10569763 -66.0625 4.8125 C-70.29589399 4.52243284 -74.50767515 4.47850962 -78.75 4.5 C-80.47246948 4.50737183 -80.47246948 4.50737183 -82.22973633 4.51489258 C-90.87631061 4.63394094 -98.71765751 5.41713098 -107.0625 7.8125 Z " fill="#000000" transform="translate(456.0625,312.1875)"/>
<path d="M0 0 C11.55 0 23.1 0 35 0 C35.33 40.26 35.66 80.52 36 122 C58.50980825 99.97695269 58.50980825 99.97695269 80 77 C89.32029028 66.58130831 98.81291583 56.33574135 108.46565628 46.22428894 C112.7883161 41.68960567 117.06179652 37.12454122 121.24267578 32.45849609 C151.67222141 -1.40746816 151.67222141 -1.40746816 172.16857529 -2.53825378 C181.54481712 -2.68821579 190.78827392 -1.68300486 200 0 C198.65844369 2.98932164 197.18247123 5.05967051 194.85473633 7.35644531 C194.21679642 7.99100647 193.57885651 8.62556763 192.92158508 9.27935791 C192.23203232 9.95545105 191.54247955 10.63154419 190.83203125 11.328125 C189.76247444 12.38987946 189.76247444 12.38987946 188.67131042 13.4730835 C186.38973806 15.73685772 184.10161658 17.99385671 181.8125 20.25 C179.54206125 22.49266506 177.27315071 24.73682159 175.00724792 26.98406982 C173.59870969 28.38052401 172.18750874 29.77429967 170.77314758 31.16485596 C167.63662385 34.27004368 164.60715571 37.40501598 161.73681641 40.75878906 C156.90676226 46.35704765 151.61671963 51.50702188 146.37890625 56.71875 C145.26767877 57.82810833 144.15667488 58.93769067 143.04588318 60.04748535 C140.14655629 62.94302616 137.24423728 65.83554907 134.34124756 68.72741699 C131.36953694 71.68882864 128.40071733 74.65313554 125.43164062 77.6171875 C119.6238918 83.4142681 113.81297327 89.2081582 108 95 C109.49975274 98.86789286 111.25246454 102.26184964 113.421875 105.8046875 C113.92641457 106.6323185 113.92641457 106.6323185 114.44114685 107.47666931 C115.54056373 109.27829976 116.64526313 111.07662776 117.75 112.875 C118.52161374 114.13738571 119.29284947 115.40000254 120.0637207 116.6628418 C121.62803325 119.22444411 123.19427646 121.78484899 124.76220703 124.34423828 C127.34578828 128.56265915 129.91693941 132.78859999 132.48681641 137.01538086 C134.19424977 139.82360137 135.90354957 142.63067828 137.61328125 145.4375 C139.88364496 149.16537307 142.15171537 152.89462682 144.41796875 156.625 C150.51922388 166.66466805 156.64735012 176.68692639 162.8125 186.6875 C169.23887282 197.11264397 175.61536827 207.56696588 181.95800781 218.04321289 C185.12474758 223.27254016 188.298589 228.49671529 191.515625 233.6953125 C192.29715942 234.96084961 192.29715942 234.96084961 193.09448242 236.25195312 C194.04399908 237.78684451 194.99705421 239.31955498 195.9543457 240.84960938 C199 245.77843614 199 245.77843614 199 248 C164.74423962 250.96675064 164.74423962 250.96675064 156.16943359 246.53808594 C151.95979296 242.50058674 150.11067896 237.32790225 148.16894531 231.92578125 C146.04291063 226.60447807 142.84494969 221.90475494 139.8125 217.0625 C138.53033551 214.92736667 137.25307593 212.78928105 135.98046875 210.6484375 C131.89264932 203.80941534 127.763937 196.99563821 123.625 190.1875 C123.2716156 189.60616302 122.9182312 189.02482605 122.55413818 188.4258728 C121.11736379 186.06244872 119.68048699 183.69908702 118.24328613 181.33592224 C115.72755321 177.19881066 113.21623013 173.05904599 110.70703125 168.91796875 C101.20382708 153.23779688 91.63075451 137.6021753 82 122 C76.92819244 126.24829242 72.16258545 130.68357382 67.5 135.375 C66.87480469 135.99632812 66.24960937 136.61765625 65.60546875 137.2578125 C64.98285156 137.88171875 64.36023438 138.505625 63.71875 139.1484375 C62.89793945 139.97093994 62.89793945 139.97093994 62.06054688 140.81005859 C60.84273997 142.10433916 59.65013312 143.42459229 58.52000427 144.7960968 C55.48191474 148.44645653 52.6134679 151.41217289 48.65258789 154.05639648 C42.0556965 158.77490656 36.58367991 163.90616049 35.06317139 172.17266846 C33.56165734 183.4359652 34.04901349 194.92565493 34.36914062 206.2522583 C34.50402844 211.79747235 34.5098905 217.34423012 34.53809357 222.89081573 C34.59477268 231.26573496 34.81219616 239.62239998 35 248 C23.45 248 11.9 248 0 248 C0 166.16 0 84.32 0 0 Z " fill="#000000" transform="translate(787,292)"/>
<path d="M0 0 C14.52 0 29.04 0 44 0 C56.62913024 32.12756311 69.24348172 64.26075781 81.81445312 96.41113281 C85.16497484 104.97971094 88.51810208 113.54726959 91.87097168 122.1149292 C93.74741536 126.90991332 95.62369982 131.70495973 97.5 136.5 C98.24999923 138.41666697 98.99999923 140.33333363 99.75 142.25 C101.25 146.08333333 102.75 149.91666667 104.25 153.75 C104.62116943 154.69854355 104.99233887 155.6470871 105.37475586 156.62437439 C106.1255712 158.54312582 106.87638499 160.46187786 107.62719727 162.38063049 C109.48971009 167.14040512 111.35224869 171.90016966 113.21484375 176.65991211 C116.7388295 185.66531424 120.26253558 194.67082555 123.78540039 203.67666626 C125.45465717 207.94390534 127.12405162 212.21109055 128.79345703 216.47827148 C129.59137763 218.51795802 130.38923031 220.55767113 131.18701172 222.59741211 C132.29117073 225.42047686 133.3955609 228.24345107 134.5 231.06640625 C134.82621338 231.90063614 135.15242676 232.73486603 135.48852539 233.59437561 C135.94279907 234.75530983 135.94279907 234.75530983 136.40625 235.93969727 C136.68339844 236.65094757 136.96054687 237.36219788 137.24609375 238.09500122 C137.8799089 239.69654928 138.54568426 241.28539688 139.21875 242.87084961 C140 245 140 245 140 248 C128.45 248 116.9 248 105 248 C101.83035124 240.39284297 98.70318136 232.79366895 95.71484375 225.1171875 C95.14039268 223.64670456 95.14039268 223.64670456 94.55433655 222.14651489 C93.34745187 219.05650486 92.14238086 215.96579185 90.9375 212.875 C89.72871407 209.7771988 88.51953502 206.67955173 87.30995178 203.58206177 C86.56253849 201.66778131 85.81562531 199.75330548 85.06932068 197.83859253 C84.72538773 196.95712555 84.38145477 196.07565857 84.02709961 195.16748047 C83.69539764 194.31667908 83.36369568 193.46587769 83.02194214 192.58929443 C81.62464884 189.04897289 80.1804642 185.52799298 78.72901917 182.009552 C78 180 78 180 78 178 C40.38 178 2.76 178 -36 178 C-36.99 181.3 -37.98 184.6 -39 188 C-39.64629878 189.83477037 -40.31492936 191.66209472 -41.02124023 193.47460938 C-41.38849716 194.42259399 -41.75575409 195.37057861 -42.13414001 196.34729004 C-42.52170975 197.33612183 -42.90927948 198.32495361 -43.30859375 199.34375 C-43.92058372 200.91835999 -43.92058372 200.91835999 -44.54493713 202.52478027 C-45.8388642 205.85126612 -47.13814144 209.17563254 -48.4375 212.5 C-49.30568101 214.73033547 -50.17352253 216.96080312 -51.04101562 219.19140625 C-53.35305414 225.13061612 -55.66827284 231.06848917 -58 237 C-58.37303253 237.95479248 -58.74606506 238.90958496 -59.13040161 239.89331055 C-59.48834808 240.80185791 -59.84629456 241.71040527 -60.21508789 242.64648438 C-60.53465958 243.46064819 -60.85423126 244.27481201 -61.18348694 245.11364746 C-62 247 -62 247 -63 248 C-65.52094076 248.08847743 -68.01430893 248.11527301 -70.53515625 248.09765625 C-71.66503212 248.09553383 -71.66503212 248.09553383 -72.81773376 248.09336853 C-75.2326956 248.08775376 -77.64756601 248.07519883 -80.0625 248.0625 C-81.69596221 248.0574869 -83.32942586 248.05292366 -84.96289062 248.04882812 C-88.97529585 248.03777954 -92.98763241 248.02050506 -97 248 C-92.17555443 235.01851765 -87.19770195 222.09827426 -82.1875 209.1875 C-81.77271393 208.11799103 -81.35792786 207.04848206 -80.93057251 205.94656372 C-74.5542898 189.51054163 -68.11243047 173.1015324 -61.61669922 156.71240234 C-55.82138334 142.0897686 -50.06114131 127.45354329 -44.3125 112.8125 C-43.85381531 111.64439789 -43.39513062 110.47629578 -42.92254639 109.27279663 C-40.57439864 103.29280934 -38.22656856 97.31269741 -35.87890625 91.33251953 C-32.95160304 83.87620234 -30.02289043 76.42043935 -27.09375 68.96484375 C-26.72832627 68.0347219 -26.72832627 68.0347219 -26.35552025 67.08580971 C-25.14282414 63.99912429 -23.93010538 60.91244777 -22.71737671 57.82577515 C-20.51589624 52.22243707 -18.31459315 46.6190293 -16.11328125 41.015625 C-15.28076267 38.896484 -14.44824313 36.77734338 -13.61572266 34.65820312 C-13.19631409 33.59061768 -12.77690552 32.52303223 -12.3447876 31.4230957 C-8.2298584 20.94873047 -4.1149292 10.47436523 0 0 Z M21 32 C12.58829117 53.23766508 4.29328702 74.51925338 -3.94580078 95.82446289 C-7.63240366 105.35209556 -11.33090945 114.87400281 -15.10546875 124.3671875 C-15.41626373 125.14995056 -15.72705872 125.93271362 -16.04727173 126.73919678 C-17.4725482 130.32698643 -18.90327347 133.9124269 -20.34375 137.49414062 C-20.83741118 138.73300455 -21.33091178 139.97193249 -21.82421875 141.2109375 C-22.24791748 142.26587402 -22.67161621 143.32081055 -23.1081543 144.40771484 C-24.16266184 147.01589962 -24.16266184 147.01589962 -24 150 C6.03 150 36.06 150 67 150 C65.04225006 144.12675019 63.04582914 138.32689921 60.83984375 132.55078125 C60.53780533 131.75610443 60.23576691 130.96142761 59.92457581 130.14266968 C58.93112386 127.53175345 57.93451896 124.92205601 56.9375 122.3125 C56.59251465 121.40770905 56.2475293 120.50291809 55.89208984 119.57070923 C49.45766149 102.69964251 42.90123275 85.87704913 36.29272461 69.07348633 C31.4470784 56.7461102 26.6895377 44.38762248 22 32 C21.67 32 21.34 32 21 32 Z " fill="#000000" transform="translate(476,10)"/>
<path d="M0 0 C131.1722488 0 131.1722488 0 155 20 C155.99 20.721875 156.98 21.44375 158 22.1875 C171.36427047 33.58970306 179.84375526 52.52290505 181.22314453 69.79394531 C182.42327065 92.8709786 177.85761341 113.90215935 162.2578125 131.6171875 C161.51273438 132.40351563 160.76765625 133.18984375 160 134 C159.33742187 134.70382813 158.67484375 135.40765625 157.9921875 136.1328125 C139.2461586 154.30861999 113.57795605 158.38080167 88.5390625 158.1953125 C87.18318854 158.19236074 85.82731226 158.19032731 84.47143555 158.18920898 C79.52258825 158.17885282 74.57379019 158.15093152 69.625 158.125 C58.52875 158.08375 47.4325 158.0425 36 158 C36 187.7 36 217.4 36 248 C24.12 248 12.24 248 0 248 C0 166.16 0 84.32 0 0 Z M36 29 C36 62 36 95 36 129 C52.2421875 129.0928125 52.2421875 129.0928125 68.8125 129.1875 C73.90909058 129.22846802 73.90909058 129.22846802 79.10864258 129.27026367 C81.8289352 129.27903295 84.54923178 129.28667584 87.26953125 129.29296875 C87.96141037 129.30080887 88.65328949 129.30864899 89.36613464 129.31672668 C105.07387652 129.48556138 119.42234606 126.47136932 131.3125 115.5 C142.342587 103.75944041 145.6250936 89.63754126 145.3125 73.96484375 C144.731807 61.12910897 138.46984646 49.5572838 129.19921875 40.81640625 C119.22372053 32.57731802 108.12502279 28.86182946 95.26025391 28.88647461 C94.27786271 28.88629381 94.27786271 28.88629381 93.27562523 28.88610935 C91.17590193 28.88684999 89.07626972 28.89443912 86.9765625 28.90234375 C85.03946411 28.90385437 85.03946411 28.90385437 83.06323242 28.90539551 C78.25047922 28.91061786 73.43773869 28.92457913 68.625 28.9375 C57.85875 28.958125 47.0925 28.97875 36 29 Z " fill="#000000" transform="translate(15,10)"/>
<path d="M0 0 C13.2 0 26.4 0 40 0 C64 42 88 84 112 126 C114.6908148 122.76733025 116.93884808 119.57222803 118.9609375 115.88671875 C119.5075 114.89865234 120.0540625 113.91058594 120.6171875 112.89257812 C121.48730469 111.30606445 121.48730469 111.30606445 122.375 109.6875 C127.15072842 101.06409964 132.00339248 92.49733889 137 84 C141.76486283 75.88615352 146.42423299 67.72195167 151 59.5 C156.15226525 50.24333907 161.42829995 41.06865505 166.78955078 31.93164062 C172.98474569 21.3574775 178.99170646 10.68141074 185 0 C197.87 0 210.74 0 224 0 C223.14240421 4.28797894 222.50390596 6.24494957 220.3671875 9.82421875 C219.81619385 10.75669434 219.2652002 11.68916992 218.69750977 12.64990234 C218.09608154 13.65230957 217.49465332 14.6547168 216.875 15.6875 C215.58913841 17.86025981 214.30400648 20.03345157 213.01953125 22.20703125 C212.3538916 23.32932129 211.68825195 24.45161133 211.00244141 25.60791016 C207.81524912 31.00694084 204.68870639 36.44050203 201.5625 41.875 C200.30218543 44.06255882 199.04176823 46.25005852 197.78125 48.4375 C197.15605469 49.52289063 196.53085937 50.60828125 195.88671875 51.7265625 C194.0203162 54.9647516 192.15126237 58.20139438 190.28125 61.4375 C183.46178895 73.24117161 176.67532854 85.06279326 169.92263794 96.90472412 C164.77542743 105.92789944 159.56572095 114.91280126 154.31518555 123.8762207 C148.85605147 133.21073836 143.49643326 142.60124824 138.15234375 152.00195312 C137.50910156 153.13181641 136.86585938 154.26167969 136.203125 155.42578125 C135.63239258 156.43036377 135.06166016 157.43494629 134.47363281 158.4699707 C133.378021 160.3509888 132.20748873 162.18876691 131 164 C130.78691022 166.71628167 130.68873157 169.33348505 130.68115234 172.05151367 C130.67110672 172.87125168 130.6610611 173.69098969 130.65071106 174.53556824 C130.61980868 177.24636124 130.6028244 179.95705517 130.5859375 182.66796875 C130.56723152 184.54699053 130.54765854 186.42600386 130.5272522 188.30500793 C130.47586476 193.25168889 130.43627444 198.19839711 130.39910889 203.14520264 C130.35911066 208.19257384 130.30799927 213.23983102 130.2578125 218.28710938 C130.16097486 228.19133423 130.07762213 238.09560589 130 248 C118.45 248 106.9 248 95 248 C95.07863281 242.27527344 95.15726563 236.55054688 95.23828125 230.65234375 C95.25915948 226.9743334 95.27610753 223.29710615 95.27929688 219.61914062 C95.28469585 213.81050823 95.30279563 208.00432854 95.40795898 202.1965332 C96.08187473 171.26279103 96.08187473 171.26279103 82.54580688 144.06491089 C80.4951903 141.32566801 78.88403917 138.48245196 77.23046875 135.48828125 C76.21747096 133.76224244 75.20317807 132.03696297 74.1875 130.3125 C69.0903243 121.61472619 64.0557415 112.88275042 59.0625 104.125 C52.03417892 91.7996267 44.95759481 79.50277786 37.85888672 67.21777344 C35.36245016 62.89638733 32.86862118 58.57349943 30.375 54.25048828 C29.13169753 52.0951069 27.88820997 49.93983227 26.64453125 47.78466797 C23.74665642 42.76285179 20.84987589 37.74041451 17.95724487 32.71557617 C16.94052802 30.94954478 15.92344342 29.18372569 14.90625 27.41796875 C13.63599127 25.21265845 12.36640982 23.00695784 11.09765625 20.80078125 C7.83361706 15.13585991 4.51571108 9.51676466 1.06860352 3.9609375 C0 2 0 2 0 0 Z " fill="#000000" transform="translate(579,10)"/>
<path d="M0 0 C11.88 0 23.76 0 36 0 C36 72.27 36 144.54 36 219 C74.28 219 112.56 219 152 219 C152 228.57 152 238.14 152 248 C101.84 248 51.68 248 0 248 C0 166.16 0 84.32 0 0 Z " fill="#000000" transform="translate(219,10)"/>
</svg>
