<?xml version="1.0" standalone="no"?>
<!DOCTYPE svg PUBLIC "-//W3C//DTD SVG 20010904//EN"
 "http://www.w3.org/TR/2001/REC-SVG-20010904/DTD/svg10.dtd">
<svg version="1.0" xmlns="http://www.w3.org/2000/svg"
 width="619.000000pt" height="400.000000pt" viewBox="0 0 619.000000 400.000000"
 preserveAspectRatio="xMidYMid meet">

<g transform="translate(0.000000,400.000000) scale(0.100000,-0.100000)"
fill="#000000" stroke="none">
<path d="M3130 3183 c-330 -22 -596 -144 -825 -378 -162 -165 -259 -334 -322
-563 -25 -90 -27 -112 -27 -297 -1 -189 1 -206 28 -310 48 -185 122 -336 236
-480 315 -398 861 -563 1352 -409 317 99 592 337 743 642 94 190 130 367 122
597 -12 330 -128 597 -362 831 -227 228 -503 351 -825 366 -41 2 -95 3 -120 1z
m264 -64 c299 -51 575 -220 760 -467 155 -205 236 -451 236 -711 0 -331 -122
-626 -354 -856 -178 -176 -394 -288 -635 -330 -109 -20 -317 -19 -420 0 -488
93 -861 460 -961 946 -31 148 -25 388 13 532 57 215 150 377 307 537 174 178
354 280 587 336 137 32 321 37 467 13z"/>
<path d="M3410 2731 c-210 -46 -475 -162 -655 -288 -157 -110 -240 -212 -251
-309 -5 -41 -2 -55 18 -84 56 -82 163 -107 503 -120 132 -5 265 -14 295 -20
59 -12 130 -39 130 -49 0 -4 -39 -20 -87 -35 -351 -114 -701 -294 -834 -429
-63 -64 -82 -100 -82 -154 0 -74 47 -103 168 -103 139 0 302 45 491 135 239
113 374 237 439 400 22 57 26 80 22 126 l-5 57 77 21 c42 11 118 29 170 40
110 22 126 18 167 -41 l27 -39 13 38 c7 21 27 51 45 66 17 16 29 30 27 31 -1
2 -17 11 -35 19 -17 9 -41 33 -54 53 l-23 37 -17 -39 c-31 -69 -39 -73 -160
-99 -63 -13 -146 -31 -184 -40 l-70 -18 -45 32 c-75 52 -172 70 -440 82 -265
12 -370 27 -432 61 -37 20 -43 28 -46 60 -5 55 21 99 100 174 125 118 332 233
546 304 330 109 532 90 532 -51 0 -85 -95 -207 -219 -284 -45 -28 -61 -44 -61
-60 0 -38 28 -37 100 1 80 42 176 130 213 194 82 142 64 265 -46 322 -59 31
-218 35 -337 9z m91 -928 c46 -120 -140 -344 -386 -466 -163 -80 -388 -147
-498 -147 -74 0 -101 9 -117 41 -46 85 210 287 550 435 86 37 419 163 433 164
4 0 12 -12 18 -27z"/>
</g>
</svg>
